<?xml version="1.0" standalone="no"?>
<!DOCTYPE svg PUBLIC "-//W3C//DTD SVG 20010904//EN"
 "http://www.w3.org/TR/2001/REC-SVG-20010904/DTD/svg10.dtd">
<svg version="1.0" xmlns="http://www.w3.org/2000/svg"
 width="190.000000pt" height="190.000000pt" viewBox="0 0 190.000000 190.000000"
 preserveAspectRatio="xMidYMid meet">

<g transform="translate(0.000000,190.000000) scale(0.100000,-0.100000)"
fill="#000000" stroke="none">
<path d="M1114 1756 c-139 -32 -320 -127 -501 -262 -133 -100 -157 -126 -46
-51 169 115 395 221 550 258 103 25 251 22 318 -5 l40 -17 -30 26 c-65 54
-214 77 -331 51z"/>
<path d="M775 1258 c-2 -7 -16 -74 -30 -148 -39 -199 -42 -209 -69 -216 -21
-5 -36 -36 -36 -75 0 -29 106 24 125 62 13 25 85 343 85 377 0 7 -14 12 -35
12 -20 0 -37 -6 -40 -12z"/>
<path d="M969 1156 c-92 -33 -153 -113 -153 -202 0 -59 19 -95 67 -124 27 -17
51 -20 150 -20 115 0 117 0 117 -23 0 -12 7 -33 16 -46 10 -14 13 -26 7 -30
-116 -75 -143 -96 -143 -107 0 -23 15 -17 111 46 50 33 97 60 105 60 8 0 14 4
14 10 0 11 102 82 108 75 3 -3 -37 -48 -89 -100 -103 -106 -114 -120 -98 -130
6 -4 26 8 46 26 l35 34 -27 -60 c-15 -33 -33 -74 -41 -91 -12 -30 -10 -44 7
-44 12 0 99 189 96 210 -1 11 29 53 76 104 43 47 76 90 72 95 -3 6 16 24 42
42 27 18 50 34 52 35 2 2 1 10 -3 19 -4 12 -32 -2 -135 -71 -98 -65 -134 -84
-150 -79 -24 7 -25 15 -10 85 9 42 14 50 34 50 17 0 24 7 29 31 9 46 8 49 -14
49 -24 0 -24 5 -5 90 8 36 14 68 15 73 0 4 -17 7 -39 7 l-38 0 -28 -140 -28
-140 -118 0 c-115 0 -118 1 -138 26 -25 32 -26 55 -4 101 19 41 66 73 105 73
31 0 73 -35 83 -67 6 -22 4 -23 -49 -23 -58 0 -54 3 -72 -62 -5 -16 4 -18 89
-18 l95 0 6 31 c14 72 7 126 -21 160 -47 55 -105 70 -174 45z"/>
<path d="M165 965 c-64 -234 87 -448 445 -632 90 -46 295 -133 313 -133 5 0
-40 24 -100 54 -246 124 -470 296 -562 431 -59 86 -76 142 -76 248 0 53 -1 97
-1 97 -1 0 -10 -29 -19 -65z"/>
<path d="M1737 841 c-20 -375 -108 -588 -277 -677 -25 -12 -38 -23 -29 -24 9
0 43 14 76 30 115 57 191 168 228 330 20 91 29 295 18 405 l-9 80 -7 -144z"/>
</g>
</svg>
