<?xml version="1.0" encoding="utf-8"?><!-- Uploaded to: SVG Repo, www.svgrepo.com, Generator: SVG Repo Mixer Tools -->
<svg width="800px" height="800px" viewBox="0 0 50.921 50.921" xmlns="http://www.w3.org/2000/svg">
  <path id="pencil" d="M257.322,199.7l4.284,4.286a1.325,1.325,0,0,1,0,1.873h0l-27.281,27.279,1.8,1.8,27.281-27.28a3.872,3.872,0,0,0,0-5.469l-10.373-10.371a3.874,3.874,0,0,0-5.472,0l-27.276,27.277,1.8,1.8,27.278-27.279a1.328,1.328,0,0,1,1.872,0l4.289,4.287L229.649,223.77l1.8,1.8Zm-38.63,26.383a2.846,2.846,0,0,0-1.974-.943,2.05,2.05,0,0,0-1.653.848,3.132,3.132,0,0,0-.553,1.624l-.882,10.278h0a3.284,3.284,0,0,0-.015.334,3.325,3.325,0,0,0,3.373,3.382H217c.1,0,.2,0,.3-.012l10.315-.883a3.12,3.12,0,0,0,1.621-.557,2.047,2.047,0,0,0,.849-1.649,2.836,2.836,0,0,0-.943-1.975ZM217.1,239.054c-.025,0-.066,0-.107,0a.773.773,0,0,1-.839-.839s0-.041-.008-.106h.014l.865-10.1,10.177,10.178Z" transform="translate(-213.614 -190.682)" fill="#2c3233"/>
</svg>